<svg width="18" height="18" viewBox="0 0 18 18" fill="none" xmlns="http://www.w3.org/2000/svg">
<g clip-path="url(#clip0_31482_2740)">
<path d="M9 18C13.9706 18 18 13.9706 18 9C18 4.02944 13.9706 0 9 0C4.02944 0 0 4.02944 0 9C0 13.9706 4.02944 18 9 18Z" fill="#F0F0F0"/>
<path d="M0 8.99999C0 12.8697 2.44237 16.1686 5.86958 17.4402V0.559814C2.44237 1.83142 0 5.13034 0 8.99999Z" fill="#6DA544"/>
<path d="M18 8.99999C18 5.13034 15.5576 1.83142 12.1304 0.559814V17.4403C15.5576 16.1686 18 12.8697 18 8.99999Z" fill="#6DA544"/>
</g>
<defs>
<clipPath id="clip0_31482_2740">
<rect width="18" height="18" fill="white"/>
</clipPath>
</defs>
</svg>
