<svg width="80" height="80" viewBox="0 0 80 80" fill="none" xmlns="http://www.w3.org/2000/svg">
<rect width="80" height="80" rx="24" fill="#F9FAFA"/>
<path opacity="0.8" d="M12.6015 24.6919C12.1789 23.1149 13.1148 21.4939 14.6918 21.0714L30.666 16.7911C38.8527 14.5975 47.2676 19.4558 49.4612 27.6425C51.6548 35.8292 46.7964 44.2441 38.6097 46.4377L22.6356 50.718C21.0586 51.1406 19.4376 50.2047 19.015 48.6277L12.6015 24.6919Z" fill="url(#paint0_linear_14_235)"/>
<path d="M25.3061 37.6081C24.8835 36.0311 25.8194 34.4101 27.3964 33.9875L48.1781 28.4191C56.3648 26.2255 64.7797 31.0838 66.9733 39.2705C69.1669 47.4572 64.3086 55.8721 56.1219 58.0657L35.3402 63.6341C33.7631 64.0567 32.1422 63.1208 31.7196 61.5438L25.3061 37.6081Z" fill="#3143B5"/>
<defs>
<linearGradient id="paint0_linear_14_235" x1="31.2439" y1="16.2644" x2="31.2439" y2="50.8195" gradientUnits="userSpaceOnUse">
<stop stop-color="#18DC9B"/>
<stop offset="1" stop-color="#18DC9B" stop-opacity="0"/>
</linearGradient>
</defs>
</svg>
