<svg width="19" height="18" viewBox="0 0 19 18" fill="none" xmlns="http://www.w3.org/2000/svg">
<g clip-path="url(#clip0_31482_2743)">
<path d="M9.27002 18C14.2406 18 18.27 13.9706 18.27 9C18.27 4.02944 14.2406 0 9.27002 0C4.29946 0 0.27002 4.02944 0.27002 9C0.27002 13.9706 4.29946 18 9.27002 18Z" fill="#F0F0F0"/>
<path d="M8.87866 8.99994H18.27C18.27 8.18762 18.1617 7.40068 17.9599 6.6521H8.87866V8.99994Z" fill="#D80027"/>
<path d="M8.87866 4.30438H16.949C16.3981 3.40537 15.6936 2.61073 14.8723 1.95654H8.87866V4.30438Z" fill="#D80027"/>
<path d="M9.27008 18C11.3882 18 13.3351 17.2679 14.8724 16.0435H3.66772C5.20511 17.2679 7.15196 18 9.27008 18Z" fill="#D80027"/>
<path d="M1.591 13.6957H16.9491C17.3914 12.974 17.7344 12.1851 17.96 11.3479H0.580078C0.805676 12.1851 1.1487 12.974 1.591 13.6957Z" fill="#D80027"/>
<path d="M4.43899 1.40548H5.25915L4.49626 1.95971L4.78767 2.85652L4.02481 2.30228L3.26196 2.85652L3.51368 2.08178C2.84198 2.64129 2.25325 3.29681 1.7681 4.02722H2.03089L1.54528 4.38001C1.46962 4.50622 1.39706 4.63444 1.32752 4.76455L1.55941 5.47826L1.12678 5.16393C1.01923 5.39177 0.920867 5.62475 0.832449 5.86259L1.08793 6.64896H2.03089L1.268 7.2032L1.55941 8.1L0.796555 7.54576L0.339594 7.87778C0.293855 8.24544 0.27002 8.61993 0.27002 9H9.27002C9.27002 4.02947 9.27002 3.44348 9.27002 0C7.4921 0 5.83473 0.515742 4.43899 1.40548ZM4.78767 8.1L4.02481 7.54576L3.26196 8.1L3.55337 7.2032L2.79048 6.64896H3.73344L4.02481 5.75216L4.31619 6.64896H5.25915L4.49626 7.2032L4.78767 8.1ZM4.49626 4.58146L4.78767 5.47826L4.02481 4.92402L3.26196 5.47826L3.55337 4.58146L2.79048 4.02722H3.73344L4.02481 3.13042L4.31619 4.02722H5.25915L4.49626 4.58146ZM8.01593 8.1L7.25307 7.54576L6.49021 8.1L6.78162 7.2032L6.01873 6.64896H6.9617L7.25307 5.75216L7.54445 6.64896H8.48741L7.72452 7.2032L8.01593 8.1ZM7.72452 4.58146L8.01593 5.47826L7.25307 4.92402L6.49021 5.47826L6.78162 4.58146L6.01873 4.02722H6.9617L7.25307 3.13042L7.54445 4.02722H8.48741L7.72452 4.58146ZM7.72452 1.95971L8.01593 2.85652L7.25307 2.30228L6.49021 2.85652L6.78162 1.95971L6.01873 1.40548H6.9617L7.25307 0.508676L7.54445 1.40548H8.48741L7.72452 1.95971Z" fill="#0052B4"/>
</g>
<defs>
<clipPath id="clip0_31482_2743">
<rect width="18" height="18" fill="white" transform="translate(0.27002)"/>
</clipPath>
</defs>
</svg>
