<svg width="370" height="80" viewBox="0 0 370 80" fill="none" xmlns="http://www.w3.org/2000/svg">
<path d="M157.486 48.0081C157.486 32.1393 147.543 20.991 133.985 20.991C126.352 20.991 119.823 24.5062 116.71 30.2311V0H104.457V73.5187H116.509V65.3834C119.421 71.4096 126.251 74.9248 133.985 74.9248C147.543 74.9248 157.486 63.7765 157.486 48.0081ZM144.932 48.0081C144.932 57.3486 139.308 63.7765 130.57 63.7765C121.832 63.7765 116.208 57.3486 116.208 48.0081C116.208 38.4668 121.832 32.1393 130.57 32.1393C139.308 32.1393 144.932 38.6676 144.932 48.0081Z" fill="white"/>
<path d="M162.552 54.0342C162.552 66.89 171.391 74.9248 185.552 74.9248C199.713 74.9248 208.552 66.89 208.552 54.0342V22.3971H196.298V52.7286C196.298 60.0604 192.482 63.7765 185.552 63.7765C178.622 63.7765 174.805 60.0604 174.805 52.7286V22.3971H162.552V54.0342Z" fill="white"/>
<path d="M263.472 40.375C263.472 28.0215 256.843 20.991 245.695 20.991C237.961 20.991 231.734 24.5062 228.922 30.2311V22.3971H216.87V73.5187H229.123V44.1916C229.123 36.6589 233.944 32.2398 241.476 32.2398C248.206 32.2398 251.219 35.755 251.219 43.4885V73.5187H263.472V40.375Z" fill="white"/>
<path d="M269.029 48.0081C269.029 63.7765 279.775 74.9248 295.644 74.9248C305.386 74.9248 313.421 70.7065 317.74 63.3747L308.5 56.8464C305.587 61.366 301.168 63.7765 295.945 63.7765C287.207 63.7765 281.583 57.5495 281.583 48.0081C281.583 38.3663 287.207 32.2398 295.945 32.2398C301.469 32.2398 305.587 34.5498 308.5 39.0694L317.74 32.5411C313.421 25.3097 305.386 20.991 295.644 20.991C279.775 20.991 269.029 32.1393 269.029 48.0081Z" fill="white"/>
<path d="M368.741 51.6238C368.942 50.0168 369.043 48.4099 369.043 46.9033C369.043 31.3358 358.899 20.991 344.135 20.991C328.768 20.991 318.222 32.3402 318.222 48.209C318.222 64.1782 329.069 74.9248 345.34 74.9248C354.68 74.9248 362.514 71.4096 367.335 65.0821L360.003 57.8508C356.287 62.1695 351.567 64.2786 345.742 64.2786C337.305 64.2786 331.982 59.7591 330.676 51.6238H368.741ZM330.676 43.2877C331.982 35.9559 336.702 31.6371 344.235 31.6371C351.567 31.6371 356.287 35.755 356.789 43.2877H330.676Z" fill="white"/>
<path opacity="0.5" d="M1.12927 20.4991C0.590904 18.4899 1.78326 16.4246 3.79246 15.8863L28.6521 9.22517C41.0422 5.90525 53.7777 13.2581 57.0976 25.6482C60.4175 38.0383 53.0647 50.7738 40.6746 54.0937L15.815 60.7548C13.8058 61.2932 11.7405 60.1009 11.2022 58.0917L1.12927 20.4991Z" fill="url(#paint0_linear_14_178)"/>
<path d="M21.3986 38.7694C20.8603 36.7602 22.0526 34.695 24.0618 34.1566L56.1974 25.5459C68.5876 22.226 81.3231 29.5788 84.643 41.9689C87.9629 54.3591 80.6101 67.0946 68.2199 70.4145L36.0843 79.0252C34.0751 79.5635 32.0099 78.3712 31.4716 76.362L21.3986 38.7694Z" fill="white"/>
<defs>
<linearGradient id="paint0_linear_14_178" x1="25.6204" y1="10.0375" x2="37.6429" y2="54.9061" gradientUnits="userSpaceOnUse">
<stop stop-color="white"/>
<stop offset="1" stop-color="white" stop-opacity="0"/>
</linearGradient>
</defs>
</svg>
